<svg
  xmlns="http://www.w3.org/2000/svg"
  viewBox="-30 -30 1455.91 473.07"  
  fill="rgb(201 201 201)"
>
  <path
    d="M1013.72,0h-94.1V273.82c0,76.77,62.46,139.24,139.24,139.24h43.54v-94.1h-43.54c-24.89,0-45.15-20.25-45.15-45.15v-85.62h88.69V94.1h-88.69V0h0Z"
  />
  <path
    d="M684.68,233.34v179.72h94.1V233.34c0-24.89,20.25-45.15,45.15-45.15h43.55V94.1h-43.55c-76.78,0-139.24,62.47-139.24,139.24h-.01Z"
  />
  <rect x="1300.81" y="0" width="94.1" height="413.06" />
  <rect x="1154.56" y="140.89" width="94.1" height="272.17" />
  <circle cx="1201.62" cy="59.45" r="59.39" />
  <path
    d="M196.09,141.14H112.92C50.66,141.14,0,191.79,0,254.06v46.08c0,62.27,50.65,112.92,112.92,112.92h177.27V94.1h52.15V0H196.09V141.14Zm-101.99,159v-46.08c0-10.37,8.44-18.82,18.82-18.82h83.17v83.72H112.92c-10.38,0-18.82-8.44-18.82-18.82h0Z"
  />
  <path
    d="M493.29,0h-91.21V94.1h91.21c24.89,0,45.15,20.25,45.15,45.15v1.9h-83.18c-62.26,0-112.92,50.65-112.92,112.92v46.08c0,62.27,50.65,112.92,112.92,112.92h177.27V139.24C632.53,62.47,570.07,0,493.29,0h0Zm45.15,318.96h-83.18c-10.38,0-18.82-8.44-18.82-18.82v-46.08c0-10.37,8.44-18.82,18.82-18.82h83.18v83.72h0Z"
  />
</svg>
